<svg width="354" height="263" viewBox="0 0 354 263" fill="none" xmlns="http://www.w3.org/2000/svg">
<rect width="354" height="263" rx="10" fill="url(#paint0_linear_109_3203)"/>
<path d="M226 34.2016L178.102 34.2016L178.102 99.7858L213.478 227.725H226L226 34.2016Z" fill="#B1060F"/>
<path d="M115.697 227.625H163.596V162.04L128.22 34.1008H115.697V227.625Z" fill="#B1060F"/>
<path d="M30.2695 116.816V145H41.0312C49.4883 145 54.4688 139.746 54.4688 130.801C54.4688 121.855 49.4883 116.816 41.0312 116.816H30.2695ZM36.168 121.68H40.3281C45.5234 121.68 48.4531 124.922 48.4531 130.82C48.4531 136.914 45.6016 140.117 40.3281 140.117H36.168V121.68ZM67.1836 127.832C69.7227 127.832 71.4609 129.668 71.5781 132.344H62.6914C62.8867 129.727 64.6836 127.832 67.1836 127.832ZM71.6562 138.594C71.1289 140.195 69.5273 141.23 67.4375 141.23C64.5273 141.23 62.6328 139.18 62.6328 136.191V135.84H77.0664V134.102C77.0664 127.734 73.2188 123.613 67.125 123.613C60.9336 123.613 57.0273 127.949 57.0273 134.629C57.0273 141.328 60.8945 145.449 67.3398 145.449C72.5156 145.449 76.2656 142.695 76.8906 138.594H71.6562ZM79.6641 130.215C79.6641 133.301 81.6953 135.371 85.6602 136.27L89.5273 137.129C91.4023 137.578 92.1055 138.164 92.1055 139.219C92.1055 140.586 90.7969 141.445 88.6289 141.445C86.3633 141.445 84.9766 140.43 84.7031 138.672H79.1367C79.4492 142.754 82.8867 145.449 88.4727 145.449C94 145.449 97.7891 142.734 97.7891 138.613C97.7891 135.488 96.0898 133.828 91.8906 132.891L87.8867 132.031C86.0508 131.602 85.1523 130.898 85.1523 129.863C85.1523 128.516 86.4414 127.617 88.4141 127.617C90.5234 127.617 91.8711 128.652 91.9883 130.332H97.2422C97.1641 126.27 93.7461 123.613 88.4922 123.613C83.1211 123.613 79.6641 126.23 79.6641 130.215ZM100.738 145H106.441V124.062H100.738V145ZM103.59 121.758C105.309 121.758 106.637 120.449 106.637 118.809C106.637 117.148 105.309 115.859 103.59 115.859C101.871 115.859 100.543 117.148 100.543 118.809C100.543 120.449 101.871 121.758 103.59 121.758ZM119.918 140.547C117.086 140.547 115.328 138.32 115.328 134.492C115.328 130.684 117.105 128.301 119.918 128.301C122.77 128.301 124.586 130.723 124.586 134.492C124.586 138.281 122.77 140.547 119.918 140.547ZM119.82 152.891C126.09 152.891 130.27 149.707 130.27 144.707V124.062H124.645V127.715H124.547C123.453 125.312 121.09 123.73 118.082 123.73C112.77 123.73 109.488 127.812 109.488 134.453C109.488 140.996 112.867 144.941 117.984 144.941C121.012 144.941 123.473 143.418 124.449 141.191H124.566V144.863C124.566 147.285 122.926 148.926 119.977 148.926C117.809 148.926 116.168 147.93 115.719 146.484H110.133C110.582 150.215 114.312 152.891 119.82 152.891ZM134 145H139.703V132.988C139.703 130.273 141.324 128.398 143.883 128.398C146.441 128.398 147.73 129.961 147.73 132.695V145H153.434V131.504C153.434 126.602 150.816 123.672 146.168 123.672C142.945 123.672 140.738 125.195 139.625 127.793H139.508V124.062H134V145ZM188.199 136.973C188.375 142.266 192.691 145.488 199.469 145.488C206.461 145.488 210.895 142.031 210.895 136.562C210.895 132.266 208.434 129.844 202.789 128.633L199.371 127.91C196.129 127.168 194.762 126.191 194.762 124.453C194.762 122.363 196.715 120.977 199.625 120.977C202.574 120.977 204.664 122.422 204.859 124.805H210.387C210.289 119.707 206.168 116.328 199.605 116.328C193.316 116.328 188.824 119.766 188.824 124.961C188.824 129.082 191.383 131.719 196.578 132.832L200.25 133.633C203.648 134.395 204.996 135.41 204.996 137.246C204.996 139.316 202.848 140.82 199.703 140.82C196.578 140.82 194.156 139.297 193.883 136.973H188.199ZM216.715 152.754C222.066 152.754 224.684 150.84 226.48 145.469L233.688 124.062H227.672L223.219 140.43H223.121L218.668 124.062H212.398L219.684 145.02C219.723 145.098 219.508 145.938 219.508 146.016C219.117 147.676 218.082 148.34 215.992 148.34C215.777 148.34 214.742 148.34 214.566 148.301V152.695C214.742 152.734 216.52 152.754 216.715 152.754ZM235.289 130.215C235.289 133.301 237.32 135.371 241.285 136.27L245.152 137.129C247.027 137.578 247.73 138.164 247.73 139.219C247.73 140.586 246.422 141.445 244.254 141.445C241.988 141.445 240.602 140.43 240.328 138.672H234.762C235.074 142.754 238.512 145.449 244.098 145.449C249.625 145.449 253.414 142.734 253.414 138.613C253.414 135.488 251.715 133.828 247.516 132.891L243.512 132.031C241.676 131.602 240.777 130.898 240.777 129.863C240.777 128.516 242.066 127.617 244.039 127.617C246.148 127.617 247.496 128.652 247.613 130.332H252.867C252.789 126.27 249.371 123.613 244.117 123.613C238.746 123.613 235.289 126.23 235.289 130.215ZM257.789 119.238V124.062H254.84V128.359H257.789V139.355C257.789 143.438 259.703 145.078 264.625 145.078C265.777 145.078 266.754 144.98 267.34 144.844V140.645C266.988 140.703 266.461 140.742 265.953 140.742C264.273 140.742 263.492 139.98 263.492 138.379V128.359H267.359V124.062H263.492V119.238H257.789ZM279.566 127.832C282.105 127.832 283.844 129.668 283.961 132.344H275.074C275.27 129.727 277.066 127.832 279.566 127.832ZM284.039 138.594C283.512 140.195 281.91 141.23 279.82 141.23C276.91 141.23 275.016 139.18 275.016 136.191V135.84H289.449V134.102C289.449 127.734 285.602 123.613 279.508 123.613C273.316 123.613 269.41 127.949 269.41 134.629C269.41 141.328 273.277 145.449 279.723 145.449C284.898 145.449 288.648 142.695 289.273 138.594H284.039ZM292.398 145H298.102V132.363C298.102 130.02 299.566 128.379 301.734 128.379C303.844 128.379 305.113 129.707 305.113 131.953V145H310.602V132.285C310.602 129.961 312.027 128.379 314.195 128.379C316.402 128.379 317.613 129.707 317.613 132.129V145H323.316V130.703C323.316 126.484 320.562 123.672 316.461 123.672C313.395 123.672 310.895 125.332 309.957 127.969H309.84C309.137 125.234 307.027 123.672 304 123.672C301.148 123.672 298.902 125.332 298.023 127.852H297.906V124.062H292.398V145Z" fill="black"/>
<g filter="url(#filter0_d_109_3203)">
<path d="M116 34L177.181 228H225L163.585 34H116Z" fill="#E50914"/>
</g>
<defs>
<filter id="filter0_d_109_3203" x="91.7843" y="19.4706" width="157.431" height="242.431" filterUnits="userSpaceOnUse" color-interpolation-filters="sRGB">
<feFlood flood-opacity="0" result="BackgroundImageFix"/>
<feColorMatrix in="SourceAlpha" type="matrix" values="0 0 0 0 0 0 0 0 0 0 0 0 0 0 0 0 0 0 127 0" result="hardAlpha"/>
<feOffset dy="9.68627"/>
<feGaussianBlur stdDeviation="12.1078"/>
<feComposite in2="hardAlpha" operator="out"/>
<feColorMatrix type="matrix" values="0 0 0 0 0 0 0 0 0 0 0 0 0 0 0 0 0 0 0.25 0"/>
<feBlend mode="normal" in2="BackgroundImageFix" result="effect1_dropShadow_109_3203"/>
<feBlend mode="normal" in="SourceGraphic" in2="effect1_dropShadow_109_3203" result="shape"/>
</filter>
<linearGradient id="paint0_linear_109_3203" x1="177" y1="0" x2="177" y2="263" gradientUnits="userSpaceOnUse">
<stop offset="0.395833" stop-color="#574C4C" stop-opacity="0.85"/>
<stop offset="1" stop-color="#880414"/>
</linearGradient>
</defs>
</svg>
