<svg width="502" height="364" viewBox="0 0 502 364" fill="none" xmlns="http://www.w3.org/2000/svg">
<g clip-path="url(#clip0_11_3267)" filter="url(#filter0_d_11_3267)">
<g filter="url(#filter1_bd_11_3267)">
<rect x="61" y="21" width="381" height="253" rx="23.2517" fill="url(#paint0_radial_11_3267)" fill-opacity="0.6"/>
<rect x="61.1938" y="21.1938" width="380.612" height="252.612" rx="23.0579" stroke="white" stroke-opacity="0.3" stroke-width="0.387528"/>
</g>
<path d="M81.5127 50.7393C83.906 50.7393 85.3986 49.356 85.3986 47.2973V41.2176H83.4557V47.1236C83.4557 48.3267 82.7608 49.0923 81.5127 49.0923C80.2646 49.0923 79.5634 48.3267 79.5634 47.1236V41.2176H77.6204V47.2973C77.6204 49.3625 79.1323 50.7393 81.5127 50.7393ZM87.6504 50.5012H89.5933V41.2176H87.6504V50.5012ZM95.242 50.5012H98.8963C101.676 50.5012 103.252 48.8028 103.252 45.8047V45.7918C103.252 42.8839 101.656 41.2176 98.8963 41.2176H95.242V50.5012ZM97.1849 48.8993V42.8195H98.5874C100.273 42.8195 101.27 43.9132 101.27 45.824V45.8369C101.27 47.8184 100.305 48.8993 98.5874 48.8993H97.1849ZM105.098 50.5012H111.249V48.8993H107.041V46.551H111.011V45.0584H107.041V42.8195H111.249V41.2176H105.098V50.5012ZM116.614 50.7393C118.93 50.7393 120.359 49.5748 120.359 47.7348V47.7283C120.359 46.2808 119.503 45.4959 117.541 45.0906L116.556 44.8911C115.463 44.666 115.012 44.3057 115.012 43.7009V43.6945C115.012 42.9997 115.649 42.5622 116.608 42.5558C117.586 42.5558 118.229 43.019 118.339 43.6816L118.351 43.7588H120.179L120.172 43.6752C120.05 42.1247 118.776 40.9795 116.608 40.9795C114.549 40.9795 113.069 42.1183 113.069 43.8425V43.8489C113.069 45.2579 113.899 46.1586 115.829 46.551L116.807 46.7504C117.959 46.9885 118.416 47.3295 118.416 47.9407V47.9471C118.416 48.6612 117.702 49.1566 116.666 49.1566C115.579 49.1566 114.826 48.687 114.755 47.9921L114.749 47.9278H112.876L112.883 48.0307C112.992 49.6777 114.395 50.7393 116.614 50.7393ZM122.199 50.5012H124.142V41.2176H122.199V50.5012ZM130.434 50.7393C132.968 50.7393 134.551 49.1952 134.551 46.7311V45.5538H130.652V46.9692H132.66L132.653 47.1429C132.615 48.3138 131.74 49.0923 130.466 49.0923C128.935 49.0923 127.963 47.8506 127.963 45.8369V45.824C127.963 43.8489 128.89 42.6265 130.389 42.6265C131.476 42.6265 132.267 43.1734 132.531 44.0934L132.544 44.1577H134.474L134.461 44.0934C134.184 42.2405 132.582 40.9795 130.389 40.9795C127.687 40.9795 125.982 42.8646 125.982 45.8433V45.8562C125.982 48.88 127.674 50.7393 130.434 50.7393ZM136.417 50.5012H138.276V44.563H138.379L142.677 50.5012H144.285V41.2176H142.426V47.13H142.323L138.038 41.2176H136.417V50.5012Z" fill="white"/>
<path d="M80.304 67.7738C81.8881 67.7738 83.0443 66.8685 83.2509 65.5057V65.4762H82.1587L82.1489 65.4959C81.9472 66.2978 81.2437 66.7996 80.304 66.7996C79.0248 66.7996 78.2278 65.7419 78.2278 64.0593V64.0495C78.2278 62.362 79.0248 61.3042 80.2991 61.3042C81.2338 61.3042 81.9472 61.87 82.1538 62.7408V62.7556H83.246L83.2509 62.731C83.064 61.319 81.8636 60.3301 80.2991 60.3301C78.3262 60.3301 77.1012 61.7568 77.1012 64.0495V64.0593C77.1012 66.347 78.3311 67.7738 80.304 67.7738ZM86.8227 67.7049C88.1904 67.7049 88.9284 66.9177 89.1055 66.2142L89.1153 66.1699L88.0871 66.1748L88.0674 66.2142C87.9395 66.4897 87.5312 66.8292 86.8473 66.8292C85.9667 66.8292 85.4058 66.2339 85.3861 65.2105H89.1744V64.8366C89.1744 63.2328 88.2593 62.1554 86.7686 62.1554C85.2779 62.1554 84.3136 63.2721 84.3136 64.94V64.9449C84.3136 66.6373 85.2582 67.7049 86.8227 67.7049ZM86.7735 63.0311C87.4967 63.0311 88.033 63.4935 88.1166 64.448H85.4009C85.4944 63.528 86.0454 63.0311 86.7735 63.0311ZM90.4437 67.6016H91.5113V64.4086C91.5113 63.6362 92.0672 63.1344 92.8839 63.1344C93.0856 63.1344 93.2676 63.159 93.4595 63.1983V62.2144C93.3513 62.1898 93.1643 62.1652 92.9921 62.1652C92.2788 62.1652 91.7819 62.4997 91.59 63.0655H91.5113V62.2587H90.4437V67.6016ZM96.7705 67.636C96.9772 67.636 97.1739 67.6114 97.3461 67.5819V66.7308C97.1985 66.7455 97.1051 66.7504 96.9427 66.7504C96.4163 66.7504 96.1998 66.5143 96.1998 65.9387V63.1H97.3461V62.2587H96.1998V60.9106H95.1126V62.2587H94.2762V63.1H95.1126V66.1945C95.1126 67.2227 95.5947 67.636 96.7705 67.636ZM99.1468 61.3042C99.5108 61.3042 99.8159 61.0041 99.8159 60.6401C99.8159 60.2711 99.5108 59.971 99.1468 59.971C98.7778 59.971 98.4777 60.2711 98.4777 60.6401C98.4777 61.0041 98.7778 61.3042 99.1468 61.3042ZM98.6105 67.6016H99.6732V62.2587H98.6105V67.6016ZM101.607 67.6016H102.669V63.1H103.845V62.2587H102.66V61.747C102.66 61.2058 102.891 60.9205 103.481 60.9205C103.648 60.9205 103.791 60.9303 103.889 60.9451V60.1628C103.707 60.1333 103.501 60.1136 103.26 60.1136C102.148 60.1136 101.607 60.6351 101.607 61.6978V62.2587H100.726V63.1H101.607V67.6016ZM105.602 61.3042C105.966 61.3042 106.271 61.0041 106.271 60.6401C106.271 60.2711 105.966 59.971 105.602 59.971C105.233 59.971 104.932 60.2711 104.932 60.6401C104.932 61.0041 105.233 61.3042 105.602 61.3042ZM105.065 67.6016H106.128V62.2587H105.065V67.6016ZM109.931 67.7049C111.254 67.7049 112.017 66.9915 112.209 65.9534L112.219 65.9092H111.195L111.186 65.9338C111.013 66.5094 110.6 66.8144 109.931 66.8144C109.05 66.8144 108.504 66.0961 108.504 64.9154V64.9055C108.504 63.7543 109.04 63.0458 109.931 63.0458C110.639 63.0458 111.072 63.4394 111.19 63.9658L111.195 63.9806L112.219 63.9757V63.9511C112.071 62.913 111.269 62.1554 109.926 62.1554C108.366 62.1554 107.417 63.2131 107.417 64.9055V64.9154C107.417 66.6422 108.371 67.7049 109.931 67.7049ZM114.895 67.6901C115.603 67.6901 116.164 67.3851 116.479 66.8439H116.563V67.6016H117.621V63.9462C117.621 62.8244 116.863 62.1554 115.52 62.1554C114.305 62.1554 113.463 62.7408 113.335 63.6165L113.331 63.651H114.359L114.364 63.6313C114.492 63.2525 114.88 63.036 115.471 63.036C116.194 63.036 116.563 63.3607 116.563 63.9462V64.4185L115.116 64.5021C113.842 64.5808 113.124 65.1367 113.124 66.0912V66.101C113.124 67.0702 113.877 67.6901 114.895 67.6901ZM114.187 66.0567V66.0469C114.187 65.5648 114.521 65.2991 115.259 65.2548L116.563 65.1712V65.6287C116.563 66.3175 115.977 66.839 115.18 66.839C114.605 66.839 114.187 66.5487 114.187 66.0567ZM121.143 67.636C121.35 67.636 121.547 67.6114 121.719 67.5819V66.7308C121.571 66.7455 121.478 66.7504 121.315 66.7504C120.789 66.7504 120.572 66.5143 120.572 65.9387V63.1H121.719V62.2587H120.572V60.9106H119.485V62.2587H118.649V63.1H119.485V66.1945C119.485 67.2227 119.967 67.636 121.143 67.636ZM125.148 67.7049C126.516 67.7049 127.254 66.9177 127.431 66.2142L127.441 66.1699L126.412 66.1748L126.393 66.2142C126.265 66.4897 125.856 66.8292 125.172 66.8292C124.292 66.8292 123.731 66.2339 123.711 65.2105H127.5V64.8366C127.5 63.2328 126.584 62.1554 125.094 62.1554C123.603 62.1554 122.639 63.2721 122.639 64.94V64.9449C122.639 66.6373 123.583 67.7049 125.148 67.7049ZM125.099 63.0311C125.822 63.0311 126.358 63.4935 126.442 64.448H123.726C123.82 63.528 124.371 63.0311 125.099 63.0311Z" fill="white" fill-opacity="0.6"/>
<path d="M59.6189 273.873H137.394V191.269L79.9522 30.127H59.6189V273.873Z" fill="#B1060F"/>
<path d="M263.079 30.254L185.304 30.254L185.304 112.858L242.746 274H263.079L263.079 30.254Z" fill="#B1060F"/>
<g filter="url(#filter2_d_11_3267)">
<path d="M74.3604 14.6228L173.867 295.604H251.642L151.754 14.6228H74.3604Z" fill="#E50914"/>
</g>
<path d="M428.768 79.1566L436.335 99.1333C434.105 98.8153 431.875 98.4174 429.604 98.0601L425.341 87.0205L420.96 97.1477C418.81 96.7903 416.697 96.67 414.547 96.3925L422.235 78.9184L415.264 61.0083H421.718L425.621 71.0151L429.804 61.0083H436.335L428.768 79.1566ZM410.166 61.0083H404.311V95.6385C406.222 95.7576 408.214 95.8362 410.166 96.0744V61.0083ZM399.251 95.2406C393.914 94.8833 388.576 94.5664 383.12 94.4461V61.0083H389.093V88.8073C392.52 88.8871 395.945 89.1646 399.251 89.323V95.2406ZM376.746 74.5504V80.5074H368.581V94.0495H362.685V61.0083H379.415V66.9652H368.581V74.5504H376.746ZM352.647 66.9652V94.3675C350.656 94.3675 348.625 94.3675 346.672 94.4461V66.9652H340.498V61.0083H358.861V66.9652H352.647ZM334.045 80.8242C331.417 80.8242 328.31 80.8242 326.079 80.9445V89.8007C329.584 89.5613 333.09 89.2837 336.634 89.1646V94.8833L320.104 96.1947V61.0083H336.634V66.9652H326.079V74.9864C328.39 74.9864 331.934 74.8673 334.045 74.8673V80.8242ZM300.944 77.489V98.2983C298.794 98.5377 296.881 98.8153 294.85 99.1333V61.0083H300.547L308.313 82.6526V61.0083H314.288V96.67C312.177 97.0285 310.027 97.1477 307.755 97.4645L300.944 77.489Z" fill="#E50914"/>
</g>
<defs>
<filter id="filter0_d_11_3267" x="0" y="0" width="526.667" height="364" filterUnits="userSpaceOnUse" color-interpolation-filters="sRGB">
<feFlood flood-opacity="0" result="BackgroundImageFix"/>
<feColorMatrix in="SourceAlpha" type="matrix" values="0 0 0 0 0 0 0 0 0 0 0 0 0 0 0 0 0 0 127 0" result="hardAlpha"/>
<feOffset dy="30"/>
<feGaussianBlur stdDeviation="30"/>
<feComposite in2="hardAlpha" operator="out"/>
<feColorMatrix type="matrix" values="0 0 0 0 0 0 0 0 0 0 0 0 0 0 0 0 0 0 0.2 0"/>
<feBlend mode="normal" in2="BackgroundImageFix" result="effect1_dropShadow_11_3267"/>
<feBlend mode="normal" in="SourceGraphic" in2="effect1_dropShadow_11_3267" result="shape"/>
</filter>
<filter id="filter1_bd_11_3267" x="14.4966" y="-10.0023" width="474.007" height="353.757" filterUnits="userSpaceOnUse" color-interpolation-filters="sRGB">
<feFlood flood-opacity="0" result="BackgroundImageFix"/>
<feGaussianBlur in="BackgroundImageFix" stdDeviation="15.5011"/>
<feComposite in2="SourceAlpha" operator="in" result="effect1_backgroundBlur_11_3267"/>
<feColorMatrix in="SourceAlpha" type="matrix" values="0 0 0 0 0 0 0 0 0 0 0 0 0 0 0 0 0 0 127 0" result="hardAlpha"/>
<feOffset dy="23.2517"/>
<feGaussianBlur stdDeviation="23.2517"/>
<feColorMatrix type="matrix" values="0 0 0 0 0 0 0 0 0 0 0 0 0 0 0 0 0 0 0.41 0"/>
<feBlend mode="normal" in2="effect1_backgroundBlur_11_3267" result="effect2_dropShadow_11_3267"/>
<feBlend mode="normal" in="SourceGraphic" in2="effect2_dropShadow_11_3267" result="shape"/>
</filter>
<filter id="filter2_d_11_3267" x="43.8604" y="-3.67719" width="238.281" height="341.981" filterUnits="userSpaceOnUse" color-interpolation-filters="sRGB">
<feFlood flood-opacity="0" result="BackgroundImageFix"/>
<feColorMatrix in="SourceAlpha" type="matrix" values="0 0 0 0 0 0 0 0 0 0 0 0 0 0 0 0 0 0 127 0" result="hardAlpha"/>
<feOffset dy="12.2"/>
<feGaussianBlur stdDeviation="15.25"/>
<feComposite in2="hardAlpha" operator="out"/>
<feColorMatrix type="matrix" values="0 0 0 0 0 0 0 0 0 0 0 0 0 0 0 0 0 0 0.25 0"/>
<feBlend mode="normal" in2="BackgroundImageFix" result="effect1_dropShadow_11_3267"/>
<feBlend mode="normal" in="SourceGraphic" in2="effect1_dropShadow_11_3267" result="shape"/>
</filter>
<radialGradient id="paint0_radial_11_3267" cx="0" cy="0" r="1" gradientUnits="userSpaceOnUse" gradientTransform="translate(442 274) rotate(-167.924) scale(851.353 735.624)">
<stop/>
<stop offset="0.430208" stop-color="#8A0509"/>
<stop offset="1" stop-color="#D1090F"/>
</radialGradient>
<clipPath id="clip0_11_3267">
<rect width="406.667" height="244" fill="white" transform="translate(60 30)"/>
</clipPath>
</defs>
</svg>
